<svg width="24" height="24" fill="none" xmlns="http://www.w3.org/2000/svg"><path d="M17.018 2.048l-.965-.26-.523 1.93.966.261a5 5 0 013.521 3.524l.26.965 1.931-.52-.26-.966a7 7 0 00-4.93-4.934zm-.914 3.378l-.965-.26-.523 1.93.966.261a1.5 1.5 0 011.056 1.057l.26.965 1.931-.52-.26-.966a3.5 3.5 0 00-2.465-2.467z" fill="#FFE500"/><path d="M9.58 2H1v1a19.9 19.9 0 003.196 10.85 20.1 20.1 0 005.954 5.954A19.9 19.9 0 0021 23h1v-8.58l-6.69-1.487-1.86 1.86a14.1 14.1 0 01-4.242-4.243l1.859-1.86L9.58 2z" fill="#FFE500"/></svg>