<svg width="50" height="50" viewBox="0 0 50 50" fill="none" xmlns="http://www.w3.org/2000/svg">
<path d="M25.0003 45.8333C27.7367 45.8367 30.4468 45.2994 32.9748 44.2522C35.5029 43.205 37.7991 41.6686 39.7316 39.7313C41.6689 37.7988 43.2053 35.5026 44.2525 32.9745C45.2997 30.4464 45.837 27.7364 45.8337 25C45.837 22.2636 45.2997 19.5536 44.2525 17.0255C43.2053 14.4975 41.6689 12.2012 39.7316 10.2688C37.7991 8.33142 35.5029 6.79503 32.9748 5.74783C30.4468 4.70064 27.7367 4.1633 25.0003 4.16667C22.264 4.1633 19.5539 4.70064 17.0259 5.74783C14.4978 6.79503 12.2016 8.33142 10.2691 10.2688C8.33176 12.2012 6.79536 14.4975 5.74817 17.0255C4.70098 19.5536 4.16363 22.2636 4.16701 25C4.16363 27.7364 4.70098 30.4464 5.74817 32.9745C6.79536 35.5026 8.33176 37.7988 10.2691 39.7313C12.2016 41.6686 14.4978 43.205 17.0259 44.2522C19.5539 45.2994 22.264 45.8367 25.0003 45.8333Z" fill="#22C597"/>
<path d="M16.667 25L22.917 31.25L35.417 18.75" fill="#22C597"/>
<path d="M16.667 25L22.917 31.25L35.417 18.75" stroke="white" stroke-width="4" stroke-linecap="round" stroke-linejoin="round"/>
</svg>
