<svg width="18" height="18" viewBox="0 0 18 18" fill="none" xmlns="http://www.w3.org/2000/svg">
<g clip-path="url(#clip0_276_95)">
<path d="M9 18C13.6944 18 17.5 14.1944 17.5 9.5C17.5 4.80558 13.6944 1 9 1C4.30558 1 0.5 4.80558 0.5 9.5C0.5 14.1944 4.30558 18 9 18Z" fill="#F4900C"/>
<path d="M9 17C13.6944 17 17.5 13.1944 17.5 8.5C17.5 3.80558 13.6944 0 9 0C4.30558 0 0.5 3.80558 0.5 8.5C0.5 13.1944 4.30558 17 9 17Z" fill="#FFCC4D"/>
<path d="M9 16C12.866 16 16 12.866 16 9C16 5.13401 12.866 2 9 2C5.13401 2 2 5.13401 2 9C2 12.866 5.13401 16 9 16Z" fill="#FFE8B6"/>
<path d="M9 15.5C12.866 15.5 16 12.366 16 8.5C16 4.63401 12.866 1.5 9 1.5C5.13401 1.5 2 4.63401 2 8.5C2 12.366 5.13401 15.5 9 15.5Z" fill="#FFAC33"/>
<path d="M4.77148 5.42803C4.77148 5.15553 5.03898 5.04653 5.03898 5.04653L8.97798 3.19653L12.9545 5.04653C12.9545 5.04653 13.2285 5.10753 13.2285 5.43003V5.75053H4.77148V5.42803Z" fill="#FFE8B6"/>
<path d="M12.9647 6.4179C12.9647 6.1259 12.7122 5.8894 12.4012 5.8894H5.56466C5.25316 5.8894 5.03616 6.1259 5.03616 6.4179C5.03616 6.6164 5.13816 6.7874 5.30066 6.8779V7.2109H6.35766V6.9464H7.41466V7.2109H8.47166V6.9464H9.52866V7.2109H10.5857V6.9464H11.6427V7.2109H12.7002V6.8644C12.8587 6.7704 12.9647 6.6059 12.9647 6.4179ZM13.7572 11.9999C13.7572 12.1051 13.7154 12.2059 13.641 12.2803C13.5667 12.3546 13.4658 12.3964 13.3607 12.3964H4.63966C4.53451 12.3964 4.43365 12.3546 4.3593 12.2803C4.28494 12.2059 4.24316 12.1051 4.24316 11.9999C4.24316 11.8947 4.28494 11.7939 4.3593 11.7195C4.43365 11.6452 4.53451 11.6034 4.63966 11.6034H13.3612C13.5797 11.6034 13.7572 11.7809 13.7572 11.9999Z" fill="#F4900C"/>
<path d="M13.2288 6.09995C13.2287 6.17006 13.2008 6.23726 13.1512 6.28683C13.1016 6.33641 13.0344 6.36432 12.9643 6.36445H5.03584C4.9685 6.36031 4.90528 6.33064 4.85906 6.28149C4.81284 6.23234 4.78711 6.16742 4.78711 6.09995C4.78711 6.03248 4.81284 5.96756 4.85906 5.91841C4.90528 5.86926 4.9685 5.83959 5.03584 5.83545L12.9643 5.83695C12.999 5.83682 13.0333 5.84352 13.0654 5.85667C13.0974 5.86982 13.1266 5.88917 13.1511 5.9136C13.1757 5.93802 13.1952 5.96706 13.2085 5.99903C13.2219 6.03101 13.2288 6.0653 13.2288 6.09995ZM6.09334 6.40695H11.9078V6.99995H6.09334V6.40695Z" fill="#F4900C"/>
<path d="M6.3573 10.4144C6.3573 10.7064 6.1993 10.9429 6.0048 10.9429H5.6523C5.4578 10.9429 5.2998 10.7064 5.2998 10.4144V6.40741C5.2998 6.11541 5.4578 5.87891 5.6523 5.87891H6.0048C6.1993 5.87891 6.3573 6.11541 6.3573 6.40741V10.4144ZM12.7003 10.4144C12.7003 10.7064 12.5428 10.9429 12.3478 10.9429H11.9953C11.8008 10.9429 11.6428 10.7064 11.6428 10.4144V6.40741C11.6428 6.11541 11.8003 5.87891 11.9953 5.87891H12.3478C12.5423 5.87891 12.7003 6.11541 12.7003 6.40741V10.4144ZM8.47181 10.4144C8.47181 10.7064 8.31381 10.9429 8.11931 10.9429H7.7668C7.5723 10.9429 7.4143 10.7064 7.4143 10.4144V6.40741C7.4143 6.11541 7.5723 5.87891 7.7668 5.87891H8.11931C8.31381 5.87891 8.47181 6.11541 8.47181 6.40741V10.4144ZM10.5858 10.4144C10.5858 10.7064 10.4278 10.9429 10.2333 10.9429H9.8813C9.6868 10.9429 9.5288 10.7064 9.5288 10.4144V6.40741C9.5288 6.11541 9.6868 5.87891 9.8813 5.87891H10.2333C10.4278 5.87891 10.5858 6.11541 10.5858 6.40741V10.4144Z" fill="#FFD983"/>
<path d="M12.9646 10.6784C12.9646 10.9704 12.7281 11.2069 12.4361 11.2069H5.56463C5.42447 11.2069 5.29004 11.1512 5.19093 11.0521C5.09181 10.953 5.03613 10.8186 5.03613 10.6784C5.03613 10.5382 5.09181 10.4038 5.19093 10.3047C5.29004 10.2056 5.42447 10.1499 5.56463 10.1499H12.4361C12.7276 10.1499 12.9646 10.3864 12.9646 10.6784Z" fill="#FFCC4D"/>
<path d="M13.4928 11.207C13.4928 11.499 13.2563 11.7355 12.9643 11.7355H5.03534C4.89517 11.7355 4.76074 11.6798 4.66163 11.5807C4.56252 11.4816 4.50684 11.3471 4.50684 11.207C4.50684 11.0668 4.56252 10.9324 4.66163 10.8333C4.76074 10.7341 4.89517 10.6785 5.03534 10.6785H12.9638C13.2558 10.6785 13.4928 10.915 13.4928 11.207Z" fill="#FFD983"/>
<path d="M13.7572 11.6035C13.7572 11.7087 13.7154 11.8095 13.641 11.8839C13.5667 11.9583 13.4658 12 13.3607 12H4.63966C4.5876 12 4.53604 11.9898 4.48793 11.9698C4.43982 11.9499 4.39611 11.9207 4.3593 11.8839C4.32248 11.8471 4.29327 11.8034 4.27335 11.7553C4.25342 11.7072 4.24316 11.6556 4.24316 11.6035C4.24316 11.5515 4.25342 11.4999 4.27335 11.4518C4.29327 11.4037 4.32248 11.36 4.3593 11.3232C4.39611 11.2863 4.43982 11.2571 4.48793 11.2372C4.53604 11.2173 4.5876 11.207 4.63966 11.207H13.3612C13.5797 11.207 13.7572 11.3845 13.7572 11.6035Z" fill="#FFD983"/>
<path d="M12.9646 6.143C12.9646 5.851 12.7121 5.6145 12.4011 5.6145H5.56463C5.25313 5.6145 5.03613 5.851 5.03613 6.143C5.03613 6.3415 5.13813 6.5125 5.30063 6.603V6.936H6.35763V6.6715H7.41463V6.936H8.47163V6.6715H9.52863V6.936H10.5856V6.6715H11.6426V6.936H12.7001V6.5895C12.8586 6.4955 12.9646 6.331 12.9646 6.143Z" fill="#FFCC4D"/>
<path d="M4.77148 5.7315C4.77148 5.459 5.03898 5.35 5.03898 5.35L8.97798 3.5L12.9545 5.35C12.9545 5.35 13.2285 5.411 13.2285 5.7335V5.879H4.77148V5.7315Z" fill="#FFD983"/>
<path d="M9.00048 4.17139C9.00048 4.17139 6.27298 5.45689 6.00098 5.57289C5.72848 5.68839 5.81948 5.87839 6.00148 5.87839H11.9865C12.2675 5.87839 12.201 5.66389 11.978 5.54789C11.755 5.43239 9.00048 4.17139 9.00048 4.17139Z" fill="#FFAC33"/>
<path d="M13.2288 5.87851C13.2287 5.94862 13.2008 6.01582 13.1512 6.0654C13.1016 6.11497 13.0344 6.14288 12.9643 6.14301H5.03584C4.9685 6.13887 4.90528 6.1092 4.85906 6.06005C4.81284 6.01091 4.78711 5.94598 4.78711 5.87851C4.78711 5.81105 4.81284 5.74612 4.85906 5.69697C4.90528 5.64783 4.9685 5.61816 5.03584 5.61401L12.9643 5.61551C12.999 5.61538 13.0333 5.62208 13.0654 5.63524C13.0974 5.64839 13.1266 5.66773 13.1511 5.69216C13.1757 5.71659 13.1952 5.74562 13.2085 5.7776C13.2219 5.80958 13.2288 5.84387 13.2288 5.87851Z" fill="#FFD983"/>
</g>
<defs>
<clipPath id="clip0_276_95">
<rect width="18" height="18" fill="white"/>
</clipPath>
</defs>
</svg>
