<svg width="46" height="46" viewBox="0 0 46 46" fill="none" xmlns="http://www.w3.org/2000/svg">
<path d="M43.3125 0H2.52083C1.85227 0 1.21108 0.265587 0.738335 0.738335C0.265587 1.21108 0 1.85227 0 2.52083V43.3125C0 43.9811 0.265587 44.6223 0.738335 45.095C1.21108 45.5677 1.85227 45.8333 2.52083 45.8333H24.475V28.0729H18.5167V21.1979H24.475V16.0417C24.3516 14.8311 24.4945 13.6082 24.8937 12.4587C25.293 11.3093 25.9388 10.261 26.7861 9.38761C27.6333 8.51418 28.6614 7.83668 29.7981 7.40263C30.9349 6.96858 32.1529 6.78849 33.3667 6.875C35.1504 6.86269 36.9333 6.95451 38.7062 7.15V13.3375H35.0625C32.175 13.3375 31.625 14.7125 31.625 16.7063V21.1292H38.5L37.6063 28.0042H31.625V45.8333H43.3125C43.6435 45.8333 43.9713 45.7681 44.2772 45.6414C44.583 45.5148 44.8609 45.3291 45.095 45.095C45.3291 44.8609 45.5148 44.583 45.6414 44.2772C45.7681 43.9713 45.8333 43.6435 45.8333 43.3125V2.52083C45.8333 2.18979 45.7681 1.86199 45.6414 1.55615C45.5148 1.25031 45.3291 0.972416 45.095 0.738335C44.8609 0.504254 44.583 0.318571 44.2772 0.191887C43.9713 0.0652035 43.6435 0 43.3125 0Z" fill="#2463AA"/>
</svg>
