<svg width="50" height="50" viewBox="0 0 50 50" fill="none" xmlns="http://www.w3.org/2000/svg">
<path d="M4.36328 23.0968C4.3383 22.8091 4.37339 22.5194 4.46632 22.2461C4.55925 21.9727 4.70798 21.7216 4.90309 21.5088C5.0982 21.2959 5.33542 21.126 5.5997 21.0097C5.86398 20.8934 6.14954 20.8333 6.43828 20.8332H10.4164C10.9689 20.8332 11.4988 21.0527 11.8895 21.4434C12.2802 21.8341 12.4997 22.364 12.4997 22.9166V42.7082C12.4997 43.2608 12.2802 43.7907 11.8895 44.1814C11.4988 44.5721 10.9689 44.7916 10.4164 44.7916H8.16015C7.63873 44.7917 7.13621 44.5963 6.75184 44.2439C6.36748 43.8916 6.12921 43.4079 6.08411 42.8885L4.36328 23.0968ZM18.7497 22.2655C18.7497 21.3947 19.2914 20.6155 20.0779 20.2447C21.7956 19.4343 24.7216 17.8062 26.0414 15.6051C27.7424 12.7676 28.0633 7.64158 28.1154 6.46762C28.1227 6.30304 28.1185 6.13845 28.1404 5.97595C28.4227 3.94158 32.3487 6.31762 33.8539 8.83012C34.6716 10.1926 34.7758 11.9832 34.6904 13.3822C34.5977 14.878 34.1591 16.3228 33.7289 17.7582L32.8122 20.8176H44.1216C44.4435 20.8176 44.761 20.8922 45.0492 21.0355C45.3374 21.1788 45.5885 21.3869 45.7828 21.6435C45.9771 21.9002 46.1093 22.1984 46.1689 22.5147C46.2286 22.831 46.2142 23.1568 46.1268 23.4666L40.5331 43.2749C40.4096 43.7118 40.1468 44.0964 39.7846 44.3701C39.4225 44.6439 38.9808 44.7919 38.5268 44.7916H20.8331C20.2805 44.7916 19.7506 44.5721 19.3599 44.1814C18.9692 43.7907 18.7497 43.2608 18.7497 42.7082V22.2655Z" fill="black" stroke="black" stroke-width="2" stroke-linecap="round" stroke-linejoin="round"/>
</svg>
