<svg width="50" height="50" fill="none" xmlns="http://www.w3.org/2000/svg"><path d="M4.363 23.097a2.083 2.083 0 012.075-2.264h3.978a2.083 2.083 0 012.084 2.084v19.791a2.083 2.083 0 01-2.084 2.084H8.16a2.083 2.083 0 01-2.076-1.904l-1.72-19.791zm14.387-.832c0-.87.541-1.65 1.328-2.02 1.718-.81 4.644-2.439 5.963-4.64 1.701-2.837 2.022-7.963 2.074-9.137.008-.165.004-.33.025-.492.283-2.034 4.209.342 5.714 2.854.818 1.363.922 3.153.836 4.552-.092 1.496-.53 2.94-.961 4.376l-.917 3.06h11.31a2.083 2.083 0 012.005 2.649l-5.594 19.808a2.083 2.083 0 01-2.006 1.517H20.833a2.083 2.083 0 01-2.083-2.084V22.266z" fill="#FFE500" stroke="#FFE500" stroke-width="2" stroke-linecap="round" stroke-linejoin="round"/></svg>