<svg width="50" height="50" viewBox="0 0 50 50" fill="none" xmlns="http://www.w3.org/2000/svg">
<path d="M25.0003 43.7499C36.5063 43.7499 45.8337 34.4225 45.8337 22.9166C45.8337 11.4107 36.5063 2.08325 25.0003 2.08325C13.4944 2.08325 4.16699 11.4107 4.16699 22.9166C4.16699 34.4225 13.4944 43.7499 25.0003 43.7499Z" fill="#FFF59D"/>
<path d="M38.5414 22.9167C38.5414 14.8958 31.6664 8.54166 23.4372 9.47916C17.1872 10.2083 12.1872 15.2083 11.5622 21.4583C11.0414 26.25 13.0205 30.5208 16.3539 33.2292C17.8122 34.4792 18.7497 36.25 18.7497 38.2292V38.5417H31.2497V38.4375C31.2497 36.5625 32.083 34.6875 33.5414 33.4375C36.5622 30.9375 38.5414 27.1875 38.5414 22.9167Z" fill="#FBC02D"/>
<path d="M31.875 21.0416L28.75 18.9583C28.4375 18.7499 27.9167 18.7499 27.6042 18.9583L25 20.6249L22.5 18.9583C22.1875 18.7499 21.6667 18.7499 21.3542 18.9583L18.2292 21.0416C18.0208 21.2499 17.8125 21.4583 17.8125 21.7708C17.8125 22.0833 17.8125 22.3958 18.0208 22.6041L21.9792 27.4999V38.5416H24.0625V27.0833C24.0625 26.8749 23.9583 26.6666 23.8542 26.4583L20.4167 22.1874L21.9792 21.1458L24.4792 22.8124C24.7917 23.0208 25.3125 23.0208 25.625 22.8124L28.125 21.1458L29.6875 22.1874L26.25 26.4583C26.1458 26.6666 26.0417 26.8749 26.0417 27.0833V38.5416H28.125V27.4999L32.0833 22.6041C32.2917 22.3958 32.3958 22.0833 32.2917 21.7708C32.1875 21.4583 32.0833 21.1458 31.875 21.0416Z" fill="#FFF59D"/>
<path d="M25 48.9583C26.7259 48.9583 28.125 47.5591 28.125 45.8333C28.125 44.1074 26.7259 42.7083 25 42.7083C23.2741 42.7083 21.875 44.1074 21.875 45.8333C21.875 47.5591 23.2741 48.9583 25 48.9583Z" fill="#5C6BC0"/>
<path d="M27.0833 46.875H22.9167C20.625 46.875 18.75 45 18.75 42.7083V37.5H31.25V42.7083C31.25 45 29.375 46.875 27.0833 46.875Z" fill="#9FA8DA"/>
<path d="M31.25 42.7084L19.1667 44.3751C19.4792 45.1042 20.1042 45.8334 20.8333 46.2501L30.625 44.8959C31.0417 44.2709 31.25 43.5417 31.25 42.7084ZM18.75 40.3126V42.3959L31.25 40.6251V38.5417L18.75 40.3126Z" fill="#5C6BC0"/>
</svg>
