<svg width="46" height="46" viewBox="0 0 46 46" fill="none" xmlns="http://www.w3.org/2000/svg">
<path d="M22.919 16.0417C21.0956 16.0417 19.3469 16.766 18.0576 18.0553C16.7683 19.3446 16.044 21.0933 16.044 22.9167C16.044 24.74 16.7683 26.4887 18.0576 27.778C19.3469 29.0673 21.0956 29.7917 22.919 29.7917C24.7423 29.7917 26.491 29.0673 27.7803 27.778C29.0696 26.4887 29.794 24.74 29.794 22.9167C29.794 21.0933 29.0696 19.3446 27.7803 18.0553C26.491 16.766 24.7423 16.0417 22.919 16.0417ZM22.919 11.4583C25.9579 11.4583 28.8724 12.6655 31.0212 14.8144C33.1701 16.9633 34.3773 19.8777 34.3773 22.9167C34.3773 25.9556 33.1701 28.8701 31.0212 31.0189C28.8724 33.1678 25.9579 34.375 22.919 34.375C19.88 34.375 16.9655 33.1678 14.8167 31.0189C12.6678 28.8701 11.4606 25.9556 11.4606 22.9167C11.4606 19.8777 12.6678 16.9633 14.8167 14.8144C16.9655 12.6655 19.88 11.4583 22.919 11.4583ZM37.8148 10.8854C37.8148 11.6452 37.513 12.3738 36.9758 12.911C36.4386 13.4482 35.7099 13.75 34.9502 13.75C34.1905 13.75 33.4619 13.4482 32.9246 12.911C32.3874 12.3738 32.0856 11.6452 32.0856 10.8854C32.0856 10.1257 32.3874 9.39706 32.9246 8.85985C33.4619 8.32264 34.1905 8.02083 34.9502 8.02083C35.7099 8.02083 36.4386 8.32264 36.9758 8.85985C37.513 9.39706 37.8148 10.1257 37.8148 10.8854ZM22.919 4.58333C17.2494 4.58333 16.3235 4.59938 13.6858 4.71625C11.8892 4.80104 10.6838 5.04167 9.56542 5.47708C8.63003 5.82168 7.78415 6.37229 7.09042 7.08813C6.37375 7.78163 5.82235 8.62753 5.47708 9.56312C5.04167 10.686 4.80104 11.8892 4.71854 13.6835C4.59938 16.2135 4.58333 17.0981 4.58333 22.9167C4.58333 28.5885 4.59938 29.5121 4.71625 32.1498C4.80104 33.9442 5.04167 35.1519 5.47479 36.2679C5.86438 37.2648 6.32271 37.9821 7.08354 38.7429C7.85583 39.5129 8.57312 39.9735 9.55854 40.354C10.6906 40.7917 11.896 41.0346 13.6835 41.1171C16.2135 41.2363 17.0981 41.25 22.9167 41.25C28.5885 41.25 29.5121 41.234 32.1498 41.1171C33.9419 41.0323 35.1473 40.7917 36.2679 40.3585C37.2033 40.0139 38.0492 39.4633 38.7429 38.7475C39.5152 37.9775 39.9758 37.2602 40.3563 36.2725C40.7917 35.145 41.0346 33.9396 41.1171 32.1475C41.2363 29.6198 41.25 28.7329 41.25 22.9167C41.25 17.2471 41.234 16.3213 41.1171 13.6835C41.0323 11.8915 40.7894 10.6815 40.3563 9.56312C40.0117 8.62774 39.461 7.78186 38.7452 7.08813C38.0517 6.37146 37.2058 5.82006 36.2702 5.47479C35.1473 5.03937 33.9419 4.79875 32.1498 4.71625C29.6221 4.59708 28.7375 4.58333 22.9167 4.58333M22.9167 0C29.1431 0 29.92 0.0229165 32.3652 0.1375C34.8035 0.252083 36.4673 0.634792 37.9271 1.20313C39.4396 1.78521 40.7138 2.57354 41.9879 3.84542C43.1537 4.99064 44.0554 6.3765 44.6302 7.90625C45.1963 9.36604 45.5813 11.0298 45.6958 13.4704C45.8035 15.9133 45.8333 16.6902 45.8333 22.9167C45.8333 29.1431 45.8104 29.92 45.6958 32.3629C45.5813 34.8058 45.1963 36.465 44.6302 37.9271C44.0554 39.4568 43.1537 40.8427 41.9879 41.9879C40.8427 43.1537 39.4568 44.0554 37.9271 44.6302C36.4673 45.1963 34.8035 45.5813 32.3652 45.6958C29.92 45.8035 29.1431 45.8333 22.9167 45.8333C16.6902 45.8333 15.9133 45.8104 13.4681 45.6958C11.0298 45.5813 9.36833 45.1963 7.90625 44.6302C6.3765 44.0554 4.99064 43.1537 3.84542 41.9879C2.67966 40.8427 1.77791 39.4568 1.20313 37.9271C0.634792 36.4673 0.252083 34.8035 0.1375 32.3629C0.0274999 29.92 0 29.1431 0 22.9167C0 16.6902 0.0229165 15.9133 0.1375 13.4704C0.252083 11.0275 0.634792 9.36833 1.20313 7.90625C1.77791 6.3765 2.67966 4.99064 3.84542 3.84542C4.99064 2.67966 6.3765 1.77791 7.90625 1.20313C9.36604 0.634792 11.0275 0.252083 13.4681 0.1375C15.9156 0.0297915 16.6925 0 22.919 0" fill="url(#paint0_linear_127_823)"/>
<defs>
<linearGradient id="paint0_linear_127_823" x1="22.9167" y1="0" x2="22.9167" y2="45.8333" gradientUnits="userSpaceOnUse">
<stop stop-color="#FD01BA"/>
<stop offset="1" stop-color="#FFC500"/>
</linearGradient>
</defs>
</svg>
