<svg width="35" height="35" viewBox="0 0 35 35" fill="none" xmlns="http://www.w3.org/2000/svg">
<path d="M33.5 17.25C33.5 21.5598 31.788 25.693 28.7405 28.7405C25.693 31.788 21.5598 33.5 17.25 33.5M33.5 17.25C33.5 12.9402 31.788 8.80698 28.7405 5.75951C25.693 2.71205 21.5598 1 17.25 1M33.5 17.25C33.5 21.3925 26.225 24.75 17.25 24.75C8.275 24.75 1 21.3925 1 17.25M33.5 17.25C33.5 13.1075 26.225 9.75 17.25 9.75C8.275 9.75 1 13.1075 1 17.25M17.25 33.5C12.9402 33.5 8.80698 31.788 5.75951 28.7405C2.71205 25.693 1 21.5598 1 17.25M17.25 33.5C21.3925 33.5 24.75 26.225 24.75 17.25C24.75 8.275 21.3925 1 17.25 1M17.25 33.5C13.1075 33.5 9.75 26.225 9.75 17.25C9.75 8.275 13.1075 1 17.25 1M17.25 1C12.9402 1 8.80698 2.71205 5.75951 5.75951C2.71205 8.80698 1 12.9402 1 17.25" stroke="#22C597" stroke-width="2"/>
</svg>
