<svg width="50" height="50" viewBox="0 0 50 50" fill="none" xmlns="http://www.w3.org/2000/svg">
<path fill-rule="evenodd" clip-rule="evenodd" d="M39.6581 42.3431L31.7031 34.3856C31.5291 34.2116 31.3911 34.005 31.2969 33.7777C31.2028 33.5503 31.1543 33.3067 31.1543 33.0606C31.1543 32.8145 31.2028 32.5709 31.2969 32.3435C31.3911 32.1162 31.5291 31.9096 31.7031 31.7356C31.8771 31.5616 32.0837 31.4236 32.311 31.3294C32.5384 31.2352 32.7821 31.1868 33.0281 31.1868C33.2742 31.1868 33.5179 31.2352 33.7452 31.3294C33.9726 31.4236 34.1791 31.5616 34.3531 31.7356L42.3094 39.6931C42.6608 40.0447 42.8581 40.5215 42.858 41.0185C42.8579 41.5156 42.6603 41.9923 42.3088 42.3437C41.9572 42.6951 41.4804 42.8925 40.9833 42.8924C40.4862 42.8923 40.0095 42.6947 39.6581 42.3431Z" fill="#F2C94C"/>
<path d="M30.8186 35.2692L38.7749 43.2267L40.543 41.4592L32.5868 33.5017L30.8186 35.2692ZM30.8186 30.8517C30.2332 31.4377 29.9043 32.2321 29.9043 33.0605C29.9043 33.8888 30.2332 34.6833 30.8186 35.2692L32.5868 33.5017C32.47 33.3846 32.405 33.2259 32.405 33.0605C32.405 32.8951 32.4706 32.7364 32.5874 32.6192L30.8186 30.8517ZM35.2374 30.8517C34.6514 30.2659 33.8566 29.9368 33.028 29.9368C32.1994 29.9368 31.4047 30.2659 30.8186 30.8517L32.5874 32.6192C32.7045 32.5026 32.863 32.4372 33.0283 32.4372C33.1936 32.4372 33.3521 32.5026 33.4693 32.6192L35.2374 30.8517ZM43.1936 38.8092L35.2374 30.8517L33.4693 32.6192L41.4249 40.5767L43.1936 38.8092ZM43.1936 43.2267C43.7791 42.6408 44.108 41.8463 44.108 41.018C44.108 40.1896 43.7791 39.3952 43.1936 38.8092L41.4249 40.5767C41.5417 40.6939 41.6072 40.8526 41.6072 41.018C41.6072 41.1834 41.5417 41.3421 41.4249 41.4592L43.1936 43.2267ZM38.7749 43.2267C39.3609 43.8126 40.1556 44.1417 40.9843 44.1417C41.8129 44.1417 42.6076 43.8126 43.1936 43.2267L41.4249 41.4592C41.3078 41.5758 41.1492 41.6413 40.9839 41.6413C40.8187 41.6413 40.6601 41.5758 40.543 41.4592L38.7749 43.2267Z" fill="#F2C94C"/>
<path d="M9.74824 18.1681C10.147 16.651 10.8415 15.2277 11.792 13.9798C12.7424 12.732 13.93 11.6842 15.2866 10.8967C16.6432 10.1092 18.142 9.59741 19.6969 9.39083C21.2518 9.18425 22.8323 9.28691 24.3474 9.69292C25.8625 10.0989 27.2825 10.8003 28.5258 11.7567C29.7691 12.7131 30.8112 13.9057 31.5922 15.266C32.3732 16.6263 32.8778 18.1276 33.0769 19.6835C33.2761 21.2393 33.1659 22.8193 32.7526 24.3324C31.9352 27.3831 29.9393 29.9841 27.2042 31.5632C24.469 33.1423 21.2186 33.5702 18.1679 32.7527C15.1173 31.9353 12.5163 29.9395 10.9372 27.2043C9.35807 24.4692 8.93017 21.2187 9.74762 18.1681" fill="#2F80ED"/>
</svg>
