<svg width="46" height="44" viewBox="0 0 46 44" fill="none" xmlns="http://www.w3.org/2000/svg">
<path d="M22.7487 35.7933L10.6487 43.1C10.2931 43.2756 9.96314 43.3467 9.6587 43.3133C9.35648 43.2778 9.06203 43.1733 8.77537 43C8.48648 42.8222 8.2687 42.5711 8.12203 42.2467C7.97537 41.9222 7.96203 41.5678 8.08203 41.1833L11.302 27.4833L0.652032 18.25C0.352032 18.0056 0.154254 17.7133 0.0586983 17.3733C-0.0368572 17.0333 -0.0157459 16.7078 0.122032 16.3967C0.25981 16.0856 0.443143 15.83 0.672032 15.63C0.903143 15.4367 1.21425 15.3056 1.60537 15.2367L15.6587 14.01L21.1387 1.03667C21.2898 0.670001 21.5076 0.405555 21.792 0.243333C22.0765 0.081111 22.3954 0 22.7487 0C23.102 0 23.422 0.081111 23.7087 0.243333C23.9954 0.405555 24.212 0.670001 24.3587 1.03667L29.8387 14.01L43.8887 15.2367C44.282 15.3033 44.5943 15.4356 44.8254 15.6333C45.0565 15.8289 45.2409 16.0833 45.3787 16.3967C45.5143 16.7078 45.5343 17.0333 45.4387 17.3733C45.3431 17.7133 45.1454 18.0056 44.8454 18.25L34.1954 27.4833L37.4154 41.1833C37.5398 41.5633 37.5276 41.9167 37.3787 42.2433C37.2298 42.57 37.0109 42.8211 36.722 42.9967C36.4376 43.1744 36.1431 43.28 35.8387 43.3133C35.5365 43.3467 35.2076 43.2756 34.852 43.1L22.7487 35.7933Z" fill="#FFE500"/>
</svg>
