<svg width="44" height="44" viewBox="0 0 44 44" fill="none" xmlns="http://www.w3.org/2000/svg">
<path d="M37.9638 34.153C34.6968 38.4394 29.862 41.2516 24.523 41.9709C19.1839 42.6902 13.778 41.2577 9.49444 37.9886M37.9638 34.153C41.2307 29.8666 42.6623 24.457 41.9434 19.1145C41.2246 13.7719 38.4143 8.93384 34.1307 5.6647M37.9638 34.153C34.8236 38.273 25.0477 36.0939 16.1273 29.286C7.20685 22.4781 2.52119 13.6204 5.66137 9.50032M37.9638 34.153C41.1039 30.0329 36.4183 21.1752 27.4979 14.3673C18.5774 7.55936 8.80154 5.38027 5.66137 9.50032M9.49444 37.9886C5.21088 34.7194 2.40056 29.8814 1.68171 24.5388C0.962872 19.1963 2.3944 13.7867 5.66137 9.50032M9.49444 37.9886C13.6118 41.1309 22.4636 36.4421 29.267 27.5157C36.0704 18.5894 38.248 8.80696 34.1307 5.6647M9.49444 37.9886C5.37713 34.8463 7.55477 25.0639 14.3582 16.1376C21.1616 7.21121 30.0134 2.52244 34.1307 5.6647M34.1307 5.6647C29.8471 2.39556 24.4412 0.96308 19.1022 1.6824C13.7631 2.40172 8.92834 5.21391 5.66137 9.50032" stroke="#22C597" stroke-width="3"/>
</svg>
