<svg width="46" height="33" viewBox="0 0 46 33" fill="none" xmlns="http://www.w3.org/2000/svg">
<path d="M18.3333 22.9167L30.2271 16.0417L18.3333 9.16667V22.9167ZM44.825 4.97292C45.1229 6.05 45.3292 7.49375 45.4667 9.32708C45.6271 11.1604 45.6958 12.7417 45.6958 14.1167L45.8333 16.0417C45.8333 21.0604 45.4667 24.75 44.825 27.1104C44.2521 29.1729 42.9229 30.5021 40.8604 31.075C39.7833 31.3729 37.8125 31.5792 34.7875 31.7167C31.8083 31.8771 29.0813 31.9458 26.5604 31.9458L22.9167 32.0833C13.3146 32.0833 7.33333 31.7167 4.97292 31.075C2.91042 30.5021 1.58125 29.1729 1.00833 27.1104C0.710417 26.0333 0.504167 24.5896 0.366667 22.7562C0.20625 20.9229 0.1375 19.3417 0.1375 17.9667L0 16.0417C0 11.0229 0.366667 7.33333 1.00833 4.97292C1.58125 2.91042 2.91042 1.58125 4.97292 1.00833C6.05 0.710417 8.02083 0.504166 11.0458 0.366666C14.025 0.20625 16.7521 0.1375 19.2729 0.1375L22.9167 0C32.5188 0 38.5 0.366667 40.8604 1.00833C42.9229 1.58125 44.2521 2.91042 44.825 4.97292Z" fill="#FF0001"/>
</svg>
